<svg width="117" height="111" viewBox="0 0 117 111" fill="none" xmlns="http://www.w3.org/2000/svg">
<path d="M52.0947 91.2027L19.8155 107.342C19.0488 107.726 18.6655 107.917 18.3538 107.871C18.0817 107.831 17.8382 107.681 17.6805 107.455C17.5 107.197 17.5 106.768 17.5 105.911V89.8182C17.5 89.5223 17.5 89.3744 17.4689 89.2527C17.3785 88.8983 17.1017 88.6215 16.7473 88.5311C16.6256 88.5 16.4777 88.5 16.1818 88.5C13.2232 88.5 11.744 88.5 10.5269 88.1894C6.98274 87.2848 4.21523 84.5173 3.31063 80.9731C3 79.756 3 78.2768 3 75.3182V19C3 13.3995 3 10.5992 4.08993 8.46009C5.04867 6.57847 6.57847 5.04867 8.46009 4.08993C10.5992 3 13.3995 3 19 3H97.5C103.101 3 105.901 3 108.04 4.08993C109.922 5.04867 111.451 6.57847 112.41 8.46009C113.5 10.5992 113.5 13.3995 113.5 19V72.5C113.5 78.1005 113.5 80.9008 112.41 83.0399C111.451 84.9215 109.922 86.4513 108.04 87.4101C105.901 88.5 103.101 88.5 97.5 88.5H63.5433C61.2895 88.5 60.1625 88.5 59.0588 88.6545C58.0785 88.7918 57.1131 89.0197 56.1749 89.3353C55.1186 89.6907 54.1106 90.1947 52.0947 91.2027Z" stroke="black" stroke-width="6"/>
<path d="M66.737 76.737L50 60" stroke="black" stroke-width="4.75648" stroke-linecap="round"/>
<path d="M66.737 60L50 76.737" stroke="black" stroke-width="4.75648" stroke-linecap="round"/>
<circle cx="32" cy="34" r="11" fill="black"/>
<circle cx="82" cy="34" r="11" fill="black"/>
</svg>
